<?xml version="1.0" encoding="utf-8"?>
<!-- Generator: Adobe Illustrator 23.0.1, SVG Export Plug-In . SVG Version: 6.00 Build 0)  -->
<svg version="1.1" id="Layer_14" xmlns="http://www.w3.org/2000/svg" xmlns:xlink="http://www.w3.org/1999/xlink" x="0px" y="0px"
	 viewBox="0 0 45.925 45.925" enable-background="new 0 0 45.925 45.925" xml:space="preserve">
<g>
	<path fill="#976A4D" d="M22.963,4.137c6.131,0,6.858,0.023,9.279,0.134c2.239,0.102,3.455,0.476,4.264,0.791
		c1.072,0.417,1.837,0.914,2.64,1.718c0.804,0.804,1.301,1.568,1.718,2.64c0.314,0.809,0.689,2.025,0.791,4.264
		c0.11,2.421,0.134,3.148,0.134,9.279s-0.023,6.858-0.134,9.279c-0.102,2.239-0.476,3.455-0.791,4.264
		c-0.417,1.072-0.914,1.837-1.718,2.64c-0.804,0.804-1.568,1.301-2.64,1.718c-0.809,0.314-2.025,0.689-4.264,0.791
		c-2.421,0.11-3.147,0.134-9.279,0.134s-6.858-0.023-9.279-0.134c-2.239-0.102-3.455-0.476-4.264-0.791
		c-1.072-0.417-1.837-0.914-2.64-1.718c-0.804-0.804-1.301-1.568-1.718-2.64c-0.314-0.809-0.689-2.025-0.791-4.264
		c-0.11-2.421-0.134-3.148-0.134-9.279s0.023-6.858,0.134-9.279c0.102-2.239,0.476-3.455,0.791-4.264
		C5.478,8.348,5.976,7.583,6.78,6.78c0.804-0.804,1.568-1.301,2.64-1.718c0.809-0.314,2.025-0.689,4.264-0.791
		C16.105,4.161,16.831,4.137,22.963,4.137 M22.963,0c-6.236,0-7.018,0.026-9.467,0.138c-2.444,0.112-4.113,0.5-5.574,1.067
		c-1.51,0.587-2.791,1.372-4.067,2.649C2.577,5.131,1.792,6.411,1.206,7.921c-0.568,1.461-0.956,3.13-1.067,5.574
		C0.026,15.944,0,16.726,0,22.963c0,6.236,0.026,7.018,0.138,9.467c0.112,2.444,0.5,4.113,1.067,5.574
		c0.587,1.51,1.372,2.791,2.649,4.067c1.277,1.277,2.557,2.062,4.067,2.649c1.461,0.568,3.13,0.956,5.574,1.067
		c2.449,0.112,3.231,0.138,9.467,0.138s7.018-0.026,9.467-0.138c2.444-0.112,4.113-0.5,5.574-1.067
		c1.51-0.587,2.791-1.372,4.067-2.649c1.277-1.277,2.062-2.557,2.649-4.067c0.568-1.461,0.956-3.13,1.067-5.574
		c0.112-2.449,0.138-3.231,0.138-9.467s-0.026-7.018-0.138-9.467c-0.112-2.444-0.5-4.113-1.067-5.574
		c-0.587-1.51-1.372-2.791-2.649-4.067c-1.277-1.277-2.557-2.062-4.067-2.649c-1.461-0.568-3.13-0.956-5.574-1.067
		C29.981,0.026,29.199,0,22.963,0L22.963,0z"/>
	<path fill="#976A4D" d="M22.963,11.171c-6.512,0-11.792,5.279-11.792,11.792s5.279,11.792,11.792,11.792
		s11.792-5.279,11.792-11.792S29.475,11.171,22.963,11.171z M22.963,30.617c-4.227,0-7.654-3.427-7.654-7.654
		s3.427-7.654,7.654-7.654c4.227,0,7.654,3.427,7.654,7.654S27.19,30.617,22.963,30.617z"/>
	<circle fill="#976A4D" cx="35.22" cy="10.705" r="2.756"/>
</g>
</svg>
